<?xml version="1.0" standalone="no"?>
<!DOCTYPE svg PUBLIC "-//W3C//DTD SVG 20010904//EN"
 "http://www.w3.org/TR/2001/REC-SVG-20010904/DTD/svg10.dtd">
<svg version="1.0" xmlns="http://www.w3.org/2000/svg"
 width="268.000000pt" height="268.000000pt" viewBox="0 0 268.000000 268.000000"
 preserveAspectRatio="xMidYMid meet">
<metadata>
Created by potrace 1.11, written by Peter Selinger 2001-2013
</metadata>
<g transform="translate(0.000000,268.000000) scale(0.100000,-0.100000)"
fill="#000000" stroke="none">
<path d="M1135 2668 c-180 -18 -409 -73 -604 -144 -136 -50 -419 -191 -426
-213 -7 -24 100 -460 117 -478 12 -11 26 -12 85 -1 85 14 135 3 188 -43 48
-42 69 -104 63 -182 -9 -110 -72 -193 -163 -216 -24 -6 -45 -18 -49 -26 -7
-20 46 -275 86 -410 86 -295 189 -486 348 -646 129 -131 281 -222 469 -284
l85 -28 70 23 c260 84 498 263 649 491 116 176 216 423 287 714 l31 130 -21
17 c-12 10 -31 18 -42 18 -50 0 -129 62 -164 130 -26 50 -24 153 4 206 47 91
126 131 238 119 60 -7 64 -6 74 16 23 54 121 431 116 447 -12 37 -331 198
-511 257 -296 98 -621 134 -930 103z"/>
</g>
</svg>
